<?xml version="1.0" encoding="utf-8"?>
<!-- Generator: Adobe Illustrator 16.0.0, SVG Export Plug-In . SVG Version: 6.00 Build 0)  -->
<!DOCTYPE svg PUBLIC "-//W3C//DTD SVG 1.1//EN" "http://www.w3.org/Graphics/SVG/1.1/DTD/svg11.dtd">
<svg version="1.1" id="Capa_1" xmlns="http://www.w3.org/2000/svg" xmlns:xlink="http://www.w3.org/1999/xlink" x="0px" y="0px"
	 width="192.756px" height="192.756px" viewBox="0 0 192.756 192.756" enable-background="new 0 0 192.756 192.756"
	 xml:space="preserve">
<g>
	<polygon fill-rule="evenodd" clip-rule="evenodd" fill="#FFFFFF" points="0,0 192.756,0 192.756,192.756 0,192.756 0,0 	"/>
	<path fill="none" stroke="#000000" stroke-miterlimit="10" d="M96.214,74.779c2.463,0,3.45,0.493,3.45,0.493l1.478-6.241
		c0,0,1.15,4.763,1.643,9.034c0.493,4.271,8.048,1.479,14.454,0.164c6.405-1.314,7.72-11.662,7.72-11.662h59.294
		c0,0-35.807,10.841-26.772,34.656c0,0-52.889-8.048-61.101,24.967h-0.001c-8.212-33.015-61.101-24.967-61.101-24.967
		C44.311,77.407,8.504,66.566,8.504,66.566h59.294c0,0,1.314,10.348,7.719,11.662c6.406,1.314,13.962,4.106,14.454-0.164
		c0.493-4.271,1.643-9.034,1.643-9.034l1.479,6.241c0,0,0.985-0.493,3.449-0.493H96.214L96.214,74.779z"/>
</g>
</svg>
