<svg enable-background="new 0 0 896.275 896.275"  viewBox="0 0 896.275 896.275" xmlns="http://www.w3.org/2000/svg"><path d="m741.371 0-152.146 184.435c-41.758-23.773-91.697-35.617-142.945-35.617-51.609 0-100.07 12.018-142.026 36.165l-148.913-184.983-.104 463.281c-.748 12.105 0 24.436 0 37.271 0 177.252 72.321 329.373 175.791 394.852-58.271-75.131-108.722-156.678-85.348-235.877 133.931-5.393 148.087-6.104 148.087-6.104l47.305 38.557 58.178-38.557c97.408.695 143.383 2.713 143.383 2.713 6.035 49.635-2.592 158.486-85.869 240.139 104.156-65.043 177.912-217.705 177.912-395.705 0-12.469-.547-24.52-.547-36.295zm-360.665 522.432c-13.982 5.6-45.296 24.051-59.844 28.521-14.548 4.486-34.67 7.27-42.504 0-7.834-7.271-33.009-31.322-38.035-36.904-5.035-5.617-8.392-50.365 21.252-48.105 30.191 2.279 111.861 35.791 116.896 37.461 5.034 1.687 16.218 13.425 2.235 19.027zm267.265-8.383c-5.025 5.582-30.207 29.635-38.025 36.904-7.854 7.27-27.957 4.486-42.504 0-14.539-4.471-45.861-22.924-59.844-28.521-14-5.602-2.801-17.34 2.227-19.027 5.035-1.67 86.703-35.182 116.904-37.461 29.65-2.26 26.294 42.488 21.242 48.105z"/></svg>